<svg width="16" height="16" viewBox="0 0 16 16" fill="none" xmlns="http://www.w3.org/2000/svg">
<g id="icons8-lock" clip-path="url(#clip0_648_2374)">
<path id="Vector" d="M8.00011 0.554688C5.38987 0.554688 3.2486 2.439 3.2486 4.73602V5.93069H1.89102C1.14436 5.93069 0.533447 6.46829 0.533447 7.12535V14.2934C0.533447 14.9504 1.14436 15.488 1.89102 15.488H14.1092C14.8559 15.488 15.4668 14.9504 15.4668 14.2934V7.12535C15.4668 6.46829 14.8559 5.93069 14.1092 5.93069H12.7516V4.73602C12.7516 4.261 12.6774 3.78631 12.513 3.35235C12.5093 3.34254 12.5053 3.33282 12.5011 3.32319C11.7947 1.73472 10.0608 0.554688 8.00011 0.554688ZM8.00011 1.74935C9.46371 1.74935 10.7094 2.59626 11.2283 3.74902C11.3318 4.02947 11.3941 4.38146 11.3941 4.73602V5.93069H4.60617V4.73602C4.60617 3.09064 6.13036 1.74935 8.00011 1.74935Z" fill="white"/>
</g>
<defs>
<clipPath id="clip0_648_2374">
<rect width="16" height="16" fill="white"/>
</clipPath>
</defs>
</svg>
