<svg width="18" height="18" viewBox="0 0 18 18" fill="none" xmlns="http://www.w3.org/2000/svg">
<g id="icons8-padlock" clip-path="url(#clip0_648_2360)">
<path id="Vector" d="M9.0001 0.624023C6.05679 0.624023 3.65464 2.73791 3.65464 5.32802V6.67202H2.12737C1.28355 6.67202 0.600098 7.27346 0.600098 8.01602V16.08C0.600098 16.8226 1.28355 17.424 2.12737 17.424H15.8728C16.7166 17.424 17.4001 16.8226 17.4001 16.08V8.01602C17.4001 7.27346 16.7166 6.67202 15.8728 6.67202H5.18192V5.32802C5.18192 3.46412 6.88203 1.96802 9.0001 1.96802C10.6681 1.96802 12.0721 2.90524 12.596 4.20846C12.6278 4.29361 12.6785 4.37232 12.7453 4.43995C12.8121 4.50759 12.8936 4.56279 12.985 4.60231C13.0764 4.64183 13.1758 4.66486 13.2774 4.67006C13.3791 4.67526 13.4809 4.66252 13.5769 4.63259C13.6729 4.60266 13.7611 4.55614 13.8363 4.49577C13.9116 4.4354 13.9723 4.36239 14.015 4.28105C14.0578 4.19971 14.0816 4.11168 14.085 4.02212C14.0885 3.93257 14.0716 3.84331 14.0353 3.75959C13.3008 1.93263 11.3198 0.624023 9.0001 0.624023Z" fill="white"/>
</g>
<defs>
<clipPath id="clip0_648_2360">
<rect width="18" height="18" fill="white"/>
</clipPath>
</defs>
</svg>
