<svg width="24" height="25" viewBox="0 0 24 25" fill="none" xmlns="http://www.w3.org/2000/svg">
<g id="icons8-crown">
<path id="Vector" d="M12 1.4043C11.5757 1.4043 11.1687 1.60951 10.8687 1.9748C10.5686 2.34009 10.4 2.83553 10.4 3.35212C10.4002 3.70496 10.479 4.05113 10.6282 4.35366C10.7774 4.65618 10.9912 4.9037 11.2469 5.06979L8.08286 12.2923L3.77817 9.20892C3.9231 8.9098 3.9997 8.56896 4.00005 8.22169C4.00005 7.70509 3.83148 7.20965 3.53142 6.84437C3.23136 6.47908 2.8244 6.27386 2.40005 6.27386C1.9757 6.27386 1.56874 6.47908 1.26868 6.84437C0.96862 7.20965 0.800049 7.70509 0.800049 8.22169C0.800049 8.73828 0.96862 9.23372 1.26868 9.59901C1.56874 9.9643 1.9757 10.1695 2.40005 10.1695C2.4533 10.1689 2.50649 10.1651 2.55942 10.1581L3.20005 17.9608H5.60005H16H18.4H20.8L21.4407 10.16C21.4936 10.1664 21.5468 10.1696 21.6 10.1695C22.0244 10.1695 22.4314 9.9643 22.7314 9.59901C23.0315 9.23372 23.2 8.73828 23.2 8.22169C23.2 7.70509 23.0315 7.20965 22.7314 6.84437C22.4314 6.47908 22.0244 6.27386 21.6 6.27386C21.1757 6.27386 20.7687 6.47908 20.4687 6.84437C20.1686 7.20965 20 7.70509 20 8.22169C20.0004 8.56896 20.077 8.9098 20.2219 9.20892L15.9172 12.2923L12.7532 5.06979C13.0089 4.9037 13.2227 4.65618 13.3719 4.35366C13.5211 4.05113 13.5999 3.70496 13.6 3.35212C13.6 2.83553 13.4315 2.34009 13.1314 1.9748C12.8314 1.60951 12.4244 1.4043 12 1.4043ZM3.20005 19.9086V21.8565C3.20005 22.9326 3.91605 23.8043 4.80005 23.8043H19.2C20.084 23.8043 20.8 22.9326 20.8 21.8565V19.9086H3.20005Z" fill="#FF9C41"/>
</g>
</svg>
