<svg width="24" height="22" viewBox="0 0 24 22" fill="none" xmlns="http://www.w3.org/2000/svg">
<path id="Vector" d="M14.8544 14.5716V16.1556H19.3126C22.2434 16.1556 24 14.3354 24 11.9544C24 9.96691 22.8449 8.33363 20.9833 7.55635C21.0024 3.16816 17.9379 0 14.0334 0C11.4463 0 9.60382 1.42665 8.45823 3.14848C6.29117 2.5483 3.55131 4.27996 3.50358 7.04472C1.34606 7.38909 0 9.2093 0 11.5313C0 14.0894 1.86157 16.1556 4.99284 16.1556H9.2315V14.5716H4.98329C2.72076 14.5716 1.53699 13.2236 1.53699 11.5313C1.53699 9.65206 2.69212 8.25492 4.71599 8.25492C4.84964 8.25492 4.89737 8.17621 4.89737 8.0483C4.89737 5.02773 7.00716 4.19141 8.97375 4.78175C9.08831 4.82111 9.15513 4.80143 9.21241 4.6932C10.1384 2.99106 11.5609 1.58408 14.0334 1.58408C17.1647 1.58408 19.3317 4.14222 19.494 7.07424C19.5227 7.51699 19.494 8.0483 19.4558 8.51073C19.4463 8.63864 19.494 8.71735 19.6086 8.73703C21.3461 9.13059 22.463 10.2522 22.463 11.9544C22.463 13.4696 21.3938 14.5716 19.3031 14.5716H14.8544ZM12.0477 22C12.2387 22 12.3914 21.9213 12.5919 21.7343L15.8186 18.6252C15.9714 18.4875 16.0477 18.3202 16.0477 18.1038C16.0477 17.7102 15.7422 17.415 15.3508 17.415C15.1695 17.415 14.9785 17.5036 14.8353 17.6512L13.3842 19.1467L12.7446 19.8354L12.8019 18.3694V9.92755C12.8019 9.51431 12.4582 9.16011 12.0477 9.16011C11.6372 9.16011 11.284 9.51431 11.284 9.92755V18.3694L11.3413 19.8453L10.7017 19.1467L9.2506 17.6512C9.1074 17.5036 8.90692 17.415 8.72554 17.415C8.32458 17.415 8.03819 17.7102 8.03819 18.1038C8.03819 18.3202 8.11456 18.4875 8.2673 18.6252L11.494 21.7343C11.6945 21.9213 11.8473 22 12.0477 22Z" fill="white" fill-opacity="0.7"/>
</svg>
