<svg width="24" height="25" viewBox="0 0 24 25" fill="none" xmlns="http://www.w3.org/2000/svg">
<g id="icons8-documents">
<path id="Vector" d="M4.79995 3.69995C3.91595 3.69995 3.19995 4.41595 3.19995 5.29995V19.7C3.19995 20.584 3.91595 21.2999 4.79995 21.2999H6.04526C5.77006 20.8272 5.59995 20.2856 5.59995 19.7V5.29995C5.59995 4.71435 5.77006 4.17275 6.04526 3.69995H4.79995ZM8.79995 3.69995C7.91595 3.69995 7.19995 4.41595 7.19995 5.29995V19.7C7.19995 20.584 7.91595 21.2999 8.79995 21.2999H19.2C20.084 21.2999 20.7999 20.584 20.7999 19.7V8.89995C20.7999 8.68795 20.716 8.48473 20.5656 8.33433L16.1656 3.93433C16.0152 3.78393 15.812 3.69995 15.6 3.69995H8.79995ZM15.2 5.22339L19.2765 9.29995H16C15.5584 9.29995 15.2 8.94155 15.2 8.49995V5.22339ZM11.2 12.5H16.8C17.2416 12.5 17.6 12.8584 17.6 13.3C17.6 13.7416 17.2416 14.1 16.8 14.1H11.2C10.7584 14.1 10.4 13.7416 10.4 13.3C10.4 12.8584 10.7584 12.5 11.2 12.5ZM11.2 15.7H15.2C15.6416 15.7 16 16.0584 16 16.5C16 16.9416 15.6416 17.3 15.2 17.3H11.2C10.7584 17.3 10.4 16.9416 10.4 16.5C10.4 16.0584 10.7584 15.7 11.2 15.7Z" fill="#00D971"/>
</g>
</svg>
