<svg width="24" height="25" viewBox="0 0 24 25" fill="none" xmlns="http://www.w3.org/2000/svg">
<g id="icons8-online_support">
<path id="Vector" d="M12 2.09998C7.99995 2.09998 3.19995 5.29998 3.19995 10.9V14.1V14.9C3.19995 16.1133 3.73131 16.9772 4.27339 17.4515C4.60391 17.7407 4.74226 17.7453 4.96401 17.8328C5.25468 18.584 7.11276 22.9 12 22.9C12.0272 22.9 12.0525 22.8971 12.0796 22.8968C12.0817 22.8969 12.0838 22.8969 12.0859 22.8968C13.9182 22.8759 15.3794 22.2032 16.4984 21.3H12C7.73328 21.3 6.35933 17.0468 6.35933 17.0468L6.22026 16.6297L5.7937 16.5234C5.7937 16.5234 5.58443 16.4741 5.32651 16.2484C5.06859 16.0227 4.79995 15.6866 4.79995 14.9V14.1H5.59995C5.59995 8.49998 13.5999 12.5 15.9999 6.89998C15.9999 6.89998 18.3999 9.10798 18.3999 14.1V16.5H19.0546C18.727 17.4336 17.8518 18.1 16.7999 18.1H13.5265C13.3612 17.635 12.9215 17.3 12.4 17.3H11.5999C10.9376 17.3 10.4 17.8376 10.4 18.5C10.4 19.1624 10.9376 19.7 11.5999 19.7H12.4C12.4715 19.7 12.5412 19.6901 12.6093 19.6781C12.6718 19.693 12.7358 19.7004 12.7999 19.7H16.7999C18.793 19.7 20.4532 18.2202 20.7484 16.3062C21.253 16.0371 21.5999 15.5121 21.5999 14.9V14.1C21.5999 13.5088 21.2765 12.9989 20.7999 12.7219V10.9C20.7999 7.69998 19.1999 3.69998 15.9999 3.69998C15.9999 3.69998 15.1999 2.09998 12 2.09998Z" fill="#FF2D55"/>
</g>
</svg>
