<svg width="19" height="18" viewBox="0 0 19 18" fill="none" xmlns="http://www.w3.org/2000/svg">
<g id="icons8-play">
<path id="Vector" d="M16.7 9.00005C16.7 8.77445 16.5704 8.58545 16.3862 8.48285L16.3898 8.47685L4.4498 1.91165L4.4378 1.91765C4.3406 1.84925 4.2284 1.80005 4.1 1.80005C3.7688 1.80005 3.5 2.06885 3.5 2.40005C3.5 2.40065 3.5006 2.40125 3.5006 2.40245H3.5V9.00005V15.5976H3.5006C3.5006 15.5988 3.5 15.5994 3.5 15.6C3.5 15.9312 3.7688 16.2 4.1 16.2C4.2284 16.2 4.3406 16.1508 4.4384 16.0824L4.4498 16.0884L16.3898 9.52325L16.3862 9.51725C16.5704 9.41465 16.7 9.22565 16.7 9.00005Z" fill="white"/>
</g>
</svg>
