<svg width="24" height="25" viewBox="0 0 24 25" fill="none" xmlns="http://www.w3.org/2000/svg">
<g id="icons8-licence" clip-path="url(#clip0_855_446)">
<path id="Vector" d="M5.6 2.09998C4.716 2.09998 4 2.81598 4 3.69998V21.3C4 22.184 4.716 22.9 5.6 22.9H10.4V23.7C10.4 23.8448 10.4393 23.9868 10.5138 24.111C10.5882 24.2352 10.6949 24.3369 10.8226 24.4052C10.9502 24.4735 11.094 24.5059 11.2386 24.499C11.3832 24.492 11.5233 24.4459 11.6437 24.3656L13.6 23.0609L15.5562 24.3656C15.6767 24.4459 15.8167 24.492 15.9614 24.499C16.106 24.5059 16.2498 24.4735 16.3774 24.4052C16.5051 24.3369 16.6118 24.2352 16.6862 24.111C16.7606 23.9868 16.8 23.8448 16.8 23.7V22.9H18.4C19.284 22.9 20 22.184 20 21.3V8.09998C20 7.88798 19.916 7.68475 19.7656 7.53435L14.5656 2.33435C14.4152 2.18395 14.212 2.09998 14 2.09998H5.6ZM13.6 3.62341L18.4766 8.49998H14.4C13.9584 8.49998 13.6 8.14158 13.6 7.69998V3.62341ZM13.6 13.3C14.935 13.3 16 14.365 16 15.7C16 17.0349 14.935 18.1 13.6 18.1C12.265 18.1 11.2 17.0349 11.2 15.7C11.2 14.365 12.265 13.3 13.6 13.3ZM12 19.3594C12.4912 19.5759 13.0312 19.7 13.6 19.7C14.1688 19.7 14.7088 19.5759 15.2 19.3594V22.2047L14.0437 21.4344C13.9123 21.3468 13.7579 21.3 13.6 21.3C13.4421 21.3 13.2877 21.3468 13.1562 21.4344L12 22.2047V19.3594Z" fill="#00D971"/>
</g>
<defs>
<clipPath id="clip0_855_446">
<rect width="24" height="24" fill="white" transform="translate(0 0.5)"/>
</clipPath>
</defs>
</svg>
