<svg width="24" height="25" viewBox="0 0 24 25" fill="none" xmlns="http://www.w3.org/2000/svg">
<g id="icons8-share_rounded">
<path id="Vector" d="M11.9875 1.30002C11.7797 1.30333 11.5814 1.38739 11.4344 1.5344L8.23442 4.7344C8.15764 4.80811 8.09635 4.89641 8.05412 4.99411C8.01189 5.09181 7.98958 5.19696 7.9885 5.30339C7.98742 5.40982 8.00758 5.5154 8.04781 5.61394C8.08804 5.71249 8.14753 5.80201 8.2228 5.87727C8.29806 5.95254 8.38758 6.01202 8.48612 6.05226C8.58467 6.09249 8.69024 6.11265 8.79668 6.11157C8.90311 6.11049 9.00826 6.08818 9.10596 6.04595C9.20366 6.00372 9.29196 5.94242 9.36567 5.86564L11.2 4.03127V14.1C11.1985 14.206 11.2181 14.3113 11.2577 14.4097C11.2972 14.508 11.3559 14.5976 11.4303 14.6731C11.5048 14.7486 11.5935 14.8085 11.6913 14.8494C11.7891 14.8903 11.894 14.9114 12 14.9114C12.1061 14.9114 12.211 14.8903 12.3088 14.8494C12.4066 14.8085 12.4953 14.7486 12.5698 14.6731C12.6442 14.5976 12.7029 14.508 12.7424 14.4097C12.782 14.3113 12.8015 14.206 12.8 14.1V4.03127L14.6344 5.86564C14.7081 5.94242 14.7964 6.00372 14.8941 6.04595C14.9918 6.08818 15.097 6.11049 15.2034 6.11157C15.3099 6.11265 15.4154 6.09249 15.514 6.05226C15.6125 6.01202 15.702 5.95254 15.7773 5.87727C15.8526 5.80201 15.9121 5.71249 15.9523 5.61394C15.9925 5.5154 16.0127 5.40982 16.0116 5.30339C16.0105 5.19696 15.9882 5.09181 15.946 4.99411C15.9038 4.89641 15.8425 4.80811 15.7657 4.7344L12.5657 1.5344C12.4899 1.4586 12.3997 1.3988 12.3004 1.35854C12.2011 1.31828 12.0947 1.29838 11.9875 1.30002ZM7.20005 7.70002C5.88407 7.70002 4.80005 8.78404 4.80005 10.1V19.7C4.80005 21.016 5.88407 22.1 7.20005 22.1H16.8C18.116 22.1 19.2 21.016 19.2 19.7V10.1C19.2 8.78404 18.116 7.70002 16.8 7.70002H15.2V9.30002H16.8C17.2521 9.30002 17.6 9.648 17.6 10.1V19.7C17.6 20.152 17.2521 20.5 16.8 20.5H7.20005C6.74802 20.5 6.40005 20.152 6.40005 19.7V10.1C6.40005 9.648 6.74802 9.30002 7.20005 9.30002H8.80005V7.70002H7.20005Z" fill="#FF2D55"/>
</g>
</svg>
