<svg width="73" height="72" viewBox="0 0 73 72" fill="none" xmlns="http://www.w3.org/2000/svg">
<g id="icons8-login_as_user">
<path id="Vector" d="M20.8388 12C14.803 12 9.69032 16.0769 8.10623 21.6H5.17952C4.86028 21.5955 4.54333 21.6543 4.24709 21.7728C3.95084 21.8914 3.68121 22.0675 3.45386 22.2908C3.22651 22.5141 3.04598 22.7802 2.92276 23.0736C2.79954 23.367 2.73608 23.6819 2.73608 24C2.73608 24.3181 2.79954 24.6329 2.92276 24.9264C3.04598 25.2198 3.22651 25.4859 3.45386 25.7092C3.68121 25.9325 3.95084 26.1086 4.24709 26.2271C4.54333 26.3457 4.86028 26.4045 5.17952 26.4H7.64982C8.26375 33.1041 13.9558 38.4 20.8388 38.4C28.1282 38.4 34.089 32.4617 34.089 25.2C34.089 24.9486 34.0655 24.7027 34.0514 24.4547C34.0784 24.3047 34.091 24.1524 34.089 24C34.089 22.6439 35.1369 21.6 36.4982 21.6C37.8594 21.6 38.9073 22.6439 38.9073 24C38.9053 24.1524 38.9179 24.3047 38.9449 24.4547C38.9308 24.7027 38.9073 24.9486 38.9073 25.2C38.9073 32.4617 44.8681 38.4 52.1575 38.4C59.0405 38.4 64.7326 33.1041 65.3465 26.4H67.8168C68.136 26.4045 68.453 26.3457 68.7492 26.2271C69.0455 26.1086 69.3151 25.9325 69.5424 25.7092C69.7698 25.4859 69.9503 25.2198 70.0735 24.9264C70.1968 24.6329 70.2602 24.3181 70.2602 24C70.2602 23.6819 70.1968 23.367 70.0735 23.0736C69.9503 22.7802 69.7698 22.5141 69.5424 22.2908C69.3151 22.0675 69.0455 21.8914 68.7492 21.7728C68.453 21.6543 68.136 21.5955 67.8168 21.6H64.8901C63.306 16.0769 58.1934 12 52.1575 12C47.3948 12 43.2104 14.5405 40.8741 18.3234C39.6526 17.3837 38.145 16.8 36.4982 16.8C34.8513 16.8 33.3437 17.3837 32.1222 18.3234C29.7859 14.5405 25.6015 12 20.8388 12ZM20.8388 16.8C25.5242 16.8 29.2708 20.5324 29.2708 25.2C29.2708 29.8676 25.5242 33.6 20.8388 33.6C16.1535 33.6 12.4069 29.8676 12.4069 25.2C12.4069 20.5324 16.1535 16.8 20.8388 16.8ZM52.1575 16.8C56.8428 16.8 60.5894 20.5324 60.5894 25.2C60.5894 29.8676 56.8428 33.6 52.1575 33.6C47.4721 33.6 43.7255 29.8676 43.7255 25.2C43.7255 20.5324 47.4721 16.8 52.1575 16.8ZM31.6799 43.2C24.3851 43.2 24.5923 52.8 17.2252 52.8C9.0534 52.8 9.99777 45.6 9.99777 45.6C9.99777 45.6 7.58865 48.2304 7.58865 51.6C7.58865 57.3624 13.6866 60 22.0246 60C29.1815 60 33.9099 58.4656 36.4982 55.9969C39.0864 58.4656 43.8148 60 50.9717 60C59.3097 60 65.4077 57.3624 65.4077 51.6C65.4077 48.2304 62.9985 45.6 62.9985 45.6C62.9985 45.6 63.9429 52.8 55.7712 52.8C48.4041 52.8 48.6112 43.2 41.3164 43.2C39.346 43.2 37.7204 43.8611 36.4982 44.9203C35.2759 43.8611 33.6504 43.2 31.6799 43.2Z" fill="#141927"/>
</g>
</svg>
