<svg width="17" height="16" viewBox="0 0 17 16" fill="none" xmlns="http://www.w3.org/2000/svg">
<path id="icon" d="M7.06812 12.7666C8.44604 12.7666 9.73267 12.3184 10.7786 11.5713L14.7131 15.5059C14.8958 15.6885 15.1365 15.7798 15.3855 15.7798C15.925 15.7798 16.3152 15.3647 16.3152 14.8335C16.3152 14.5845 16.2322 14.3521 16.0496 14.1694L12.1399 10.2515C12.9617 9.17236 13.4514 7.83594 13.4514 6.3833C13.4514 2.87207 10.5793 0 7.06812 0C3.54858 0 0.684814 2.87207 0.684814 6.3833C0.684814 9.89453 3.54858 12.7666 7.06812 12.7666ZM7.06812 11.3887C4.32056 11.3887 2.06274 9.12256 2.06274 6.3833C2.06274 3.64404 4.32056 1.37793 7.06812 1.37793C9.80737 1.37793 12.0735 3.64404 12.0735 6.3833C12.0735 9.12256 9.80737 11.3887 7.06812 11.3887Z" fill="white"/>
</svg>
