<svg width="18" height="18" viewBox="0 0 18 18" fill="none" xmlns="http://www.w3.org/2000/svg">
<g id="icons8-keypad">
<path id="Vector" d="M4.20002 2.40002C3.72263 2.40002 3.2648 2.58967 2.92723 2.92723C2.58967 3.2648 2.40002 3.72263 2.40002 4.20002C2.40002 4.67741 2.58967 5.13525 2.92723 5.47282C3.2648 5.81038 3.72263 6.00002 4.20002 6.00002C4.67741 6.00002 5.13525 5.81038 5.47282 5.47282C5.81038 5.13525 6.00002 4.67741 6.00002 4.20002C6.00002 3.72263 5.81038 3.2648 5.47282 2.92723C5.13525 2.58967 4.67741 2.40002 4.20002 2.40002V2.40002ZM9.00002 2.40002C8.52263 2.40002 8.0648 2.58967 7.72723 2.92723C7.38967 3.2648 7.20002 3.72263 7.20002 4.20002C7.20002 4.67741 7.38967 5.13525 7.72723 5.47282C8.0648 5.81038 8.52263 6.00002 9.00002 6.00002C9.47741 6.00002 9.93525 5.81038 10.2728 5.47282C10.6104 5.13525 10.8 4.67741 10.8 4.20002C10.8 3.72263 10.6104 3.2648 10.2728 2.92723C9.93525 2.58967 9.47741 2.40002 9.00002 2.40002V2.40002ZM13.8 2.40002C13.3226 2.40002 12.8648 2.58967 12.5272 2.92723C12.1897 3.2648 12 3.72263 12 4.20002C12 4.67741 12.1897 5.13525 12.5272 5.47282C12.8648 5.81038 13.3226 6.00002 13.8 6.00002C14.2774 6.00002 14.7353 5.81038 15.0728 5.47282C15.4104 5.13525 15.6 4.67741 15.6 4.20002C15.6 3.72263 15.4104 3.2648 15.0728 2.92723C14.7353 2.58967 14.2774 2.40002 13.8 2.40002V2.40002ZM4.20002 7.20002C3.72263 7.20002 3.2648 7.38967 2.92723 7.72723C2.58967 8.0648 2.40002 8.52263 2.40002 9.00002C2.40002 9.47741 2.58967 9.93525 2.92723 10.2728C3.2648 10.6104 3.72263 10.8 4.20002 10.8C4.67741 10.8 5.13525 10.6104 5.47282 10.2728C5.81038 9.93525 6.00002 9.47741 6.00002 9.00002C6.00002 8.52263 5.81038 8.0648 5.47282 7.72723C5.13525 7.38967 4.67741 7.20002 4.20002 7.20002ZM9.00002 7.20002C8.52263 7.20002 8.0648 7.38967 7.72723 7.72723C7.38967 8.0648 7.20002 8.52263 7.20002 9.00002C7.20002 9.47741 7.38967 9.93525 7.72723 10.2728C8.0648 10.6104 8.52263 10.8 9.00002 10.8C9.47741 10.8 9.93525 10.6104 10.2728 10.2728C10.6104 9.93525 10.8 9.47741 10.8 9.00002C10.8 8.52263 10.6104 8.0648 10.2728 7.72723C9.93525 7.38967 9.47741 7.20002 9.00002 7.20002V7.20002ZM13.8 7.20002C13.3226 7.20002 12.8648 7.38967 12.5272 7.72723C12.1897 8.0648 12 8.52263 12 9.00002C12 9.47741 12.1897 9.93525 12.5272 10.2728C12.8648 10.6104 13.3226 10.8 13.8 10.8C14.2774 10.8 14.7353 10.6104 15.0728 10.2728C15.4104 9.93525 15.6 9.47741 15.6 9.00002C15.6 8.52263 15.4104 8.0648 15.0728 7.72723C14.7353 7.38967 14.2774 7.20002 13.8 7.20002ZM4.20002 12C3.72263 12 3.2648 12.1897 2.92723 12.5272C2.58967 12.8648 2.40002 13.3226 2.40002 13.8C2.40002 14.2774 2.58967 14.7353 2.92723 15.0728C3.2648 15.4104 3.72263 15.6 4.20002 15.6C4.67741 15.6 5.13525 15.4104 5.47282 15.0728C5.81038 14.7353 6.00002 14.2774 6.00002 13.8C6.00002 13.3226 5.81038 12.8648 5.47282 12.5272C5.13525 12.1897 4.67741 12 4.20002 12ZM9.00002 12C8.52263 12 8.0648 12.1897 7.72723 12.5272C7.38967 12.8648 7.20002 13.3226 7.20002 13.8C7.20002 14.2774 7.38967 14.7353 7.72723 15.0728C8.0648 15.4104 8.52263 15.6 9.00002 15.6C9.47741 15.6 9.93525 15.4104 10.2728 15.0728C10.6104 14.7353 10.8 14.2774 10.8 13.8C10.8 13.3226 10.6104 12.8648 10.2728 12.5272C9.93525 12.1897 9.47741 12 9.00002 12V12ZM13.8 12C13.3226 12 12.8648 12.1897 12.5272 12.5272C12.1897 12.8648 12 13.3226 12 13.8C12 14.2774 12.1897 14.7353 12.5272 15.0728C12.8648 15.4104 13.3226 15.6 13.8 15.6C14.2774 15.6 14.7353 15.4104 15.0728 15.0728C15.4104 14.7353 15.6 14.2774 15.6 13.8C15.6 13.3226 15.4104 12.8648 15.0728 12.5272C14.7353 12.1897 14.2774 12 13.8 12Z" fill="white"/>
</g>
</svg>
