<svg width="24" height="24" viewBox="0 0 24 24" fill="none" xmlns="http://www.w3.org/2000/svg">
<g id="icons8-musical_notes">
<path id="Vector" d="M18.4 2.40003C18.3661 2.39995 18.3322 2.40204 18.2985 2.40628L18.2813 2.4094C18.2734 2.41033 18.2656 2.41137 18.2578 2.41253L7.88596 4.00784C7.69546 4.03528 7.52123 4.13049 7.39524 4.27599C7.26925 4.4215 7.19994 4.60755 7.20002 4.80003V15.3688C7.20002 16.32 7.09115 16.8 5.20315 16.8C3.11835 16.8 2.40002 18.0167 2.40002 19.2063C2.40002 20.1735 2.96482 21.6063 5.20002 21.6063C7.70322 21.6063 8.80002 20.0725 8.80002 18.7141V8.35159L17.6 6.91721V13.7688C17.6 14.72 17.4912 15.2016 15.6032 15.2016C13.5184 15.2008 12.8 16.4167 12.8 17.6063C12.8 18.5735 13.3648 20.0063 15.6 20.0063C18.1032 20.0063 19.2 18.3209 19.2 16.9625V3.20003C19.2 2.98785 19.1157 2.78437 18.9657 2.63434C18.8157 2.48431 18.6122 2.40003 18.4 2.40003Z" fill="white"/>
</g>
</svg>
