<svg width="36" height="36" viewBox="0 0 36 36" fill="none" xmlns="http://www.w3.org/2000/svg">
<g id="icons8-fast_forward">
<path id="Vector" d="M4.8001 7.19995C4.48184 7.19995 4.17662 7.32638 3.95157 7.55142C3.72653 7.77647 3.6001 8.08169 3.6001 8.39995C3.6001 8.40151 3.6001 8.40308 3.6001 8.40464V18V27.5953C3.6001 27.5968 3.6001 27.5984 3.6001 27.6C3.6001 27.9182 3.72653 28.2234 3.95157 28.4485C4.17662 28.6735 4.48184 28.7999 4.8001 28.7999C5.05574 28.7995 5.30455 28.7174 5.51026 28.5656H5.5126C5.52369 28.5572 5.53463 28.5486 5.54541 28.5398L18.0001 19.4835V27.5953C18.0001 27.5968 18.0001 27.5984 18.0001 27.6C18.0001 27.9182 18.1265 28.2234 18.3516 28.4485C18.5766 28.6735 18.8818 28.7999 19.2001 28.7999C19.4557 28.7995 19.7045 28.7174 19.9103 28.5656H19.9126C19.9237 28.5572 19.9346 28.5486 19.9454 28.5398L33.0493 19.0101C33.2184 18.9013 33.3574 18.7518 33.4537 18.5753C33.5499 18.3988 33.6003 18.201 33.6001 18C33.6 17.803 33.5514 17.6091 33.4586 17.4354C33.3658 17.2617 33.2317 17.1135 33.0681 17.0039L19.9126 7.43433C19.7062 7.28208 19.4565 7.19994 19.2001 7.19995C18.8818 7.19995 18.5766 7.32638 18.3516 7.55142C18.1265 7.77647 18.0001 8.08169 18.0001 8.39995C18.0001 8.40151 18.0001 8.40308 18.0001 8.40464V16.5187L5.5126 7.43433C5.30624 7.28208 5.05654 7.19994 4.8001 7.19995Z" fill="white"/>
</g>
</svg>
