<svg width="36" height="36" viewBox="0 0 36 36" fill="none" xmlns="http://www.w3.org/2000/svg">
<g id="icons8-pause">
<path id="Vector" d="M12 31.2H9.59995C8.27395 31.2 7.19995 30.126 7.19995 28.8V7.20005C7.19995 5.87405 8.27395 4.80005 9.59995 4.80005H12C13.326 4.80005 14.4 5.87405 14.4 7.20005V28.8C14.4 30.126 13.326 31.2 12 31.2ZM26.4 31.2H24C22.674 31.2 21.6 30.126 21.6 28.8V7.20005C21.6 5.87405 22.674 4.80005 24 4.80005H26.4C27.726 4.80005 28.7999 5.87405 28.7999 7.20005V28.8C28.7999 30.126 27.726 31.2 26.4 31.2Z" fill="white"/>
</g>
</svg>
