<svg width="24" height="24" viewBox="0 0 24 24" fill="none" xmlns="http://www.w3.org/2000/svg">
<g id="icons8-user_male">
<path id="Vector" d="M14.4 15.2V13.6C14.76 13.4216 15.7896 12.196 15.8976 11.2384C16.1808 11.2168 16.6256 10.9568 16.7568 9.93036C16.8272 9.37916 16.5472 9.06956 16.3776 8.97196C16.3776 8.97196 16.8 8.16956 16.8 7.20076C16.8 5.25836 16.0376 3.60076 14.4 3.60076C14.4 3.60076 13.8312 2.40076 12 2.40076C8.60642 2.40076 7.20002 4.57756 7.20002 7.20076C7.20002 8.08396 7.62242 8.97196 7.62242 8.97196C7.45282 9.06956 7.17282 9.37996 7.24322 9.93036C7.37442 10.9568 7.81922 11.2168 8.10242 11.2384C8.21042 12.196 9.24002 13.4216 9.60002 13.6V15.2C8.80002 17.6 2.40002 16 2.40002 21.6H21.6C21.6 16 15.2 17.6 14.4 15.2Z" fill="white" fill-opacity="0.7"/>
</g>
</svg>
