<svg width="36" height="36" viewBox="0 0 36 36" fill="none" xmlns="http://www.w3.org/2000/svg">
<g id="icons8-fast_forward">
<path id="Vector" d="M31.1999 28.8C31.5182 28.8 31.8234 28.6736 32.0484 28.4486C32.2735 28.2235 32.3999 27.9183 32.3999 27.6C32.3999 27.5985 32.3999 27.5969 32.3999 27.5954V18V8.40474C32.3999 8.40318 32.3999 8.40161 32.3999 8.40005C32.3999 8.08179 32.2735 7.77657 32.0484 7.55152C31.8234 7.32648 31.5182 7.20005 31.1999 7.20005C30.9443 7.20054 30.6955 7.28265 30.4897 7.43443H30.4874C30.4763 7.44283 30.4654 7.45142 30.4546 7.46021L17.9999 16.5165V8.40474C17.9999 8.40318 17.9999 8.40161 17.9999 8.40005C17.9999 8.08179 17.8735 7.77657 17.6484 7.55152C17.4234 7.32648 17.1182 7.20005 16.7999 7.20005C16.5443 7.20054 16.2955 7.28265 16.0897 7.43443H16.0874C16.0763 7.44283 16.0654 7.45142 16.0546 7.46021L2.95068 16.9899C2.78161 17.0987 2.64257 17.2482 2.54633 17.4247C2.45009 17.6012 2.39974 17.799 2.3999 18C2.40003 18.197 2.44863 18.3909 2.54142 18.5646C2.6342 18.7383 2.76832 18.8865 2.93193 18.9961L16.0874 28.5657C16.2938 28.7179 16.5435 28.8001 16.7999 28.8C17.1182 28.8 17.4234 28.6736 17.6484 28.4486C17.8735 28.2235 17.9999 27.9183 17.9999 27.6C17.9999 27.5985 17.9999 27.5969 17.9999 27.5954V19.4813L30.4874 28.5657C30.6938 28.7179 30.9435 28.8001 31.1999 28.8Z" fill="#EBEBF5" fill-opacity="0.3"/>
</g>
</svg>
