<svg width="73" height="72" viewBox="0 0 73 72" fill="none" xmlns="http://www.w3.org/2000/svg">
<g id="icons8-user_folder">
<path id="Vector" d="M9.99794 7.20001C7.33585 7.20001 5.17969 9.34801 5.17969 12V19.2V55.2C5.17969 57.852 7.33585 60 9.99794 60H62.9987C65.6608 60 67.8169 57.852 67.8169 55.2V16.8C67.8169 14.148 65.6608 12 62.9987 12H27.3418L25.8549 9.5297C24.9852 8.0849 23.4172 7.20001 21.7236 7.20001H9.99794ZM36.4983 24C38.1148 24 39.0486 25.2703 39.0486 25.2703C41.2457 25.2703 42.5588 27.2696 42.5588 29.8688C42.5588 31.1648 41.8389 32.5219 41.8389 32.5219C41.8389 32.5219 42.2388 32.6556 42.2388 33.5484C42.2388 34.8348 41.1942 35.5547 41.1942 35.5547C41.0834 36.5363 39.4662 37.864 38.9121 38.4328V41.4141C40.6515 43.8741 48.5439 43.2 48.5439 48H24.4527C24.4527 43.2 32.3474 43.8742 34.0892 41.4094V38.4281C33.5351 37.8593 31.9132 36.534 31.8024 35.55C31.8024 35.55 30.7578 35.1614 30.7578 33.5438C30.7578 32.711 31.1578 32.5172 31.1578 32.5172C31.1578 32.5172 30.2826 31.3022 30.2826 29.7422C30.2802 26.0582 33.0653 24 36.4983 24Z" fill="#141927"/>
</g>
</svg>
